<svg width="125" height="125" viewBox="0 0 33.07 33.07" xmlns="http://www.w3.org/2000/svg">
    <path style="color:#000;fill:#000;stroke-linecap:round;stroke-linejoin:round" d="M12.34.74a.77.77 0 0 0-.77.77v2.65c0 .43.34.77.77.77h1.39v.02l-.01 2.39c-.38 0-2.72.03-5.11 0a.4.4 0 0 0-.4.4v2.37H6.78a.77.77 0 0 0-.77.77v2.65c0 .42.35.77.77.77H8.2v2.24c-.37 0-2.32.03-4.36 0a.4.4 0 0 0-.4.4v2.53H2.06a.77.77 0 0 0-.77.78v2.65c0 .42.34.76.77.76H5.7c.43 0 .77-.34.77-.76v-2.65a.77.77 0 0 0-.77-.77H4.22l.02-2.13c2.87-.02 6.04.02 8.6 0v2.2a.4.4 0 0 0 0 .06h-1.58a.77.77 0 0 0-.77.77v2.65c0 .42.34.77.77.77h1.69v.87c-.34 0-1.4.02-2.63 0a.4.4 0 0 0-.4.4v1.5H9a.77.77 0 0 0-.77.77v2.65c0 .42.34.77.77.77h3.65c.43 0 .77-.35.77-.77v-2.65a.77.77 0 0 0-.77-.77H10.7v-1.1c2.95 0 6.03.02 8.56.01v1.13H17.8a.77.77 0 0 0-.77.77v2.65c0 .43.35.77.77.77h3.66c.42 0 .76-.34.76-.77v-.8h3.61v.87c0 .42.35.77.77.77h3.66c.42 0 .77-.35.77-.77v-2.65a.77.77 0 0 0-.77-.77H26.6a.77.77 0 0 0-.77.77v.99h-3.6v-1.06a.77.77 0 0 0-.77-.77h-1.4v-1.53a.4.4 0 0 0-.4-.4c-2.4.02-4.98 0-5.93 0v-.88h1.17c.43 0 .77-.35.77-.77v-2.65a.77.77 0 0 0-.77-.77h-1.28a.4.4 0 0 0 0-.07v-2.6a.4.4 0 0 0-.4-.39c-1.65.02-3.46 0-4.24 0L9 14.3h1.45c.42 0 .76-.35.76-.77v-.92h2.75v3.57c.01.21.19.39.4.39h3.7v.83c0 .42.33.77.76.77h3.65c.43 0 .77-.35.77-.77v-.82h2.59v.85c0 .43.34.77.77.77h3.65c.43 0 .77-.34.77-.77v-2.65a.77.77 0 0 0-.77-.77H26.6a.77.77 0 0 0-.77.77v1h-2.59v-1.03a.77.77 0 0 0-.77-.77h-3.65a.77.77 0 0 0-.77.77v1.03l-3.28-.01c.02-2.23 0-3.93 0-6.38H18v.9c0 .42.34.76.77.76h3.65c.43 0 .77-.34.77-.77V7.63a.77.77 0 0 0-.77-.77h-3.65a.77.77 0 0 0-.77.77v.95h-3.63a.4.4 0 0 0-.4.4s-.03 1.39-.02 2.83h-2.74v-.93a.77.77 0 0 0-.76-.77H9V8.14c2.43.02 5.12 0 5.12 0a.4.4 0 0 0 .4-.4V4.93H16c.43 0 .77-.34.77-.77V1.51A.77.77 0 0 0 16 .74z" />
</svg>